<svg xmlns="http://www.w3.org/2000/svg" width="1024" height="305.1" viewBox="0 0 1024 305.1"><defs><style>.a{fill:#11c1eb;}.b{fill:#ff8b22;}.c{fill:#0dc1e9;}.d{fill:#fff;}</style></defs><title>Untitled-1</title><path class="a" d="M155.8 99h-55.6v22.7h42.4c3.7 0 5.8 2.1 5.8 5.8v18.8s-19.8 23.3-53.2 23.3c-37.8 0-67.7-29.1-67.7-72.5 0-41.5 29.9-71.4 67.2-71.4 30.9 0 51 18 51 18l15.1-19.3s-22-23-66.6-23c-53.5 0-94.2 42.1-94.2 95.7 0 58.2 41.3 97.3 91 97.3 37.3 0 58.2-22.7 58.2-22.7h.5s-.3 4-.3 7.9v11.6h23.3v-75.3c0-11.9-5-16.9-16.9-16.9zM235.8 163.5v-89.1c0-11.9-5-16.9-16.9-16.9h-25.2v22h10.8c3.7 0 5.8 1.8 5.8 5.8v89.1c0 11.9 5 16.9 16.9 16.9h25.1v-22h-10.7c-3.7.1-5.8-1.8-5.8-5.8zM389.1 57.5h-12.5c-11.6 0-16.4 2.9-20.4 13.5l-28.6 77a162.7 162.7 0 0 0-4.8 17.5h-.5a164.8 164.8 0 0 0-4.8-17.5l-28.7-77c-4-10.6-8.5-13.5-20.4-13.5h-13.2v22h2.6c4.2 0 6.6 1.3 8.2 5.3l41.3 106.6h29.7l40.7-106.7c1.6-4 4.2-5.3 8.7-5.3h2.6zM507 80.1c-9.4-15.6-25.6-25.8-48.2-25.8-38.1 0-67.2 27.5-67.2 70.1 0 39.7 28.8 70.1 71.1 70.1 31.7 0 51.6-19.6 51.6-19.6l-11.1-18.3s-16.1 15.6-39.2 15.6-44.4-16.1-46-44.7h91.5a121.6 121.6 0 0 1-3.8-30.4 113.9 113.9 0 0 1 1.3-17zm-87.9 28.6c4-22.2 19.8-34.1 39.4-34.1 16.7 0 30.7 11.9 31.5 34.1z"/><path class="b" d="M675.6 99h-59v22.7h45.8c3.7 0 5.8 2.1 5.8 5.8v18.8s-19.8 23.3-53.2 23.3c-37.8 0-67.7-29.1-67.7-72.5 0-41.5 29.9-71.4 67.2-71.4 30.9 0 51 18 51 18l15.1-19.3s-21.9-23-66.6-23c-53.4 0-94.2 42.1-94.2 95.7 0 58.2 41.3 97.3 91 97.3 37.3 0 58.2-22.7 58.2-22.7h.5s-.3 4-.3 7.9v11.6h23.3v-75.3c.1-11.9-4.9-16.9-16.9-16.9zM823.7 163.5v-56.8c0-29.6-11.6-52.4-55-52.4-13 0-46.3 3.2-46.3 25.1v13.2h24.1v-7.6c0-8.7 15.6-10.3 22-10.3 20.9 0 29.6 8.5 29.6 32v1.3h-5.8c-22.5 0-80.7 2.6-80.7 45.8 0 26.7 22.5 40.7 45.5 40.7 32 0 42.6-26.4 42.6-26.4h.5a57.6 57.6 0 0 0-.5 7.9c0 9.5 4.8 15.3 16.7 15.3h24.1v-22h-10.9c-3.7.1-5.9-1.8-5.9-5.8zm-25.4-32.3c0 19.8-14 42.6-35.7 42.6-16.9 0-25.1-10.6-25.1-21.4 0-24.6 34.9-25.7 54.2-25.7h6.6zM925.3 54.3c-31.5 0-43.1 21.9-43.1 21.9h-.5s.5-4.8.5-11.1v-43.6c0-11.9-5-16.9-16.9-16.9h-25.4v22h10.8c3.7 0 5.8 1.8 5.8 5.8v159h24.6v-9.4a88 88 0 0 0-.5-10h.5s12.2 22.5 42 22.5c35.2 0 60.8-27.5 60.8-70.1s-22.6-70.1-58.6-70.1zm-5.8 118.2c-25.4 0-37.8-23.8-37.8-47.6 0-34.1 18.5-48.1 38.3-48.1 22.5 0 38.1 18.8 38.1 47.9s-17.5 47.8-38.6 47.8z"/><path class="c" d="M234.8 19.9a19 19 0 1 1-19-19 19 19 0 0 1 19 19z"/><path class="b" d="M1003.4 0a20.6 20.6 0 0 1 20.6 20.9 20.6 20.6 0 0 1-20.6 20.9c-11.2 0-20.3-9.2-20.3-20.9a20.5 20.5 0 0 1 20.3-20.9zm0 38.7c9.8 0 17.2-7.8 17.2-17.8s-7.5-17.8-17.2-17.8-16.9 7.8-16.9 17.8 7.4 17.8 16.9 17.8zm-6.8-29h8a6.4 6.4 0 0 1 6.7 6.7 5.9 5.9 0 0 1-4.2 5.9 9.3 9.3 0 0 1 .7 1.3l4.3 8.5h-3.6l-4.5-9.1h-4.3v9.1h-3.2zm7.4 10.8c2.4 0 4-1.6 4-4.1a3.7 3.7 0 0 0-4-4h-4.2v8.1z"/><path class="d" d="M20.4 283.6h7.2v-45.7h-7.2v-4.5h12.5l30.7 43.3a27.8 27.8 0 0 1 1.6 3.4h.2a26.6 26.6 0 0 1-.2-3.8v-38.4h-7.3v-4.5h19.9v4.5h-7.1v50.3h-5.4l-30.7-43.3a27.7 27.7 0 0 1-1.6-3.4h-.2a26.2 26.2 0 0 1 .2 3.7v38.4h7.3v4.5h-19.9zM101.8 248c11.5 0 20.7 8.7 20.7 20.4a20.7 20.7 0 1 1-20.7-20.4zm0 36.3c8.4 0 15.3-6.9 15.3-16a15.3 15.3 0 1 0-30.5 0c0 9.2 6.9 16 15.2 16zM126.1 283.8h6.6v-28.8a1.5 1.5 0 0 0-1.7-1.7h-5.3v-4.4h7.5c3.3 0 4.8 1.4 4.8 4.4v2.3a12.9 12.9 0 0 1-.3 2.8h.2a17.4 17.4 0 0 1 16-10.4c9.7 0 13 5.5 13 15.2v20.6h6.6v4.4h-11.9v-23.6c0-6.2-1-11.6-8.6-11.6s-14.9 7.6-14.9 16.3v14.5h6.6v4.4h-18.6zM180.7 299.4v-44.4a1.5 1.5 0 0 0-1.7-1.7h-5.3v-4.4h7.4c3.4 0 4.7 1.4 4.7 4.1v.3a15.4 15.4 0 0 1-.2 2.7h.2s3.2-8.1 13.7-8.1 17.1 8.4 17.1 20.6-7.4 20.5-17.6 20.5a14.4 14.4 0 0 1-12.9-7.8h-.2a23.1 23.1 0 0 1 .2 3.4v14.7h6.6v4.4h-18.6v-4.4zm17.6-15.1c6.9 0 12.7-5.8 12.7-15.8s-5.1-15.8-12.5-15.8-12.6 4.7-12.6 15.8c0 8 4.4 15.8 12.4 15.8zM221 283.8h6v-28.8a1.5 1.5 0 0 0-1.7-1.7h-5.3v-4.4h7.4c3.3 0 4.8 1.3 4.8 4.4v2.7a28.3 28.3 0 0 1-.2 3h.2c2-5.9 6.3-10.5 12.4-10.5a12 12 0 0 1 2.2.2v5.3l-2-.2c-8.8 0-12.4 9.9-12.4 17.7v12.2h6.1v4.4h-17.5zM269.2 248c11.5 0 20.7 8.7 20.7 20.4a20.7 20.7 0 1 1-20.7-20.4zm0 36.3c8.4 0 15.3-6.9 15.3-16a15.3 15.3 0 1 0-30.5 0c-.1 9.2 6.8 16 15.2 16zM294.1 283.8h6.6v-30.5h-7v-4.4h7v-2c0-12.4 8.7-14 12.8-14a19.2 19.2 0 0 1 3.2.2v4.6a13 13 0 0 0-2.7-.2c-2.7 0-8 .9-8 9.3v2.1h25.7v34.9h6.6v4.4h-18.5v-4.4h6.6v-30.5h-20.4v30.5h7.8v4.4h-19.7zm32-50.5h6v6.7h-6zM346 253.3h-7v-4.4h7.1v-10.8h5.2v10.8h9.9v4.4h-9.9v20.1c0 9.2 5.9 10.5 8.9 10.5l1.8-.2v4.6l-2.3.2c-4.5 0-13.7-1.5-13.7-14.6zM416.3 232.4c9.4 0 20.7 3.9 20.7 10.8v6h-5.2v-4.2c0-5.1-8.4-7.7-15.4-7.7-14 0-22.9 9.8-22.9 23.3s9.1 23.6 22.8 23.6c5.5 0 16.8-1.7 16.8-8v-8.6h-11.5v-4.5h16.6v14.4c0 8.5-13.7 11.6-22 11.6-16.8 0-28.4-12.2-28.4-28.4s11.4-28.3 28.5-28.3zM444.4 283.8h6.6v-30.5h-7v-4.4h12.3v34.9h6.6v4.4h-18.5zm6.3-50.5h6v6.7h-6zM462.9 248.9h16.2v4.4h-5.6l9.8 26.3a16 16 0 0 1 .8 3h.2a15.9 15.9 0 0 1 .8-3l9.8-26.3h-5.6v-4.4h16.2v4.4h-5.1l-13.3 34.9h-5.7l-13.3-34.9h-5.1zM510 283.8h6.6v-30.5h-7v-4.4h12.4v34.9h6.6v4.4h-18.6zm6.3-50.5h6v6.7h-6zM533.6 283.8h6.6v-28.8a1.5 1.5 0 0 0-1.7-1.7h-5.3v-4.4h7.5c3.3 0 4.8 1.4 4.8 4.4v2.3a12.9 12.9 0 0 1-.3 2.8h.2a17.4 17.4 0 0 1 16-10.4c9.7 0 13 5.5 13 15.2v20.6h6.6v4.4h-12v-23.6c0-6.2-1-11.6-8.6-11.6s-14.9 7.6-14.9 16.3v14.5h6.6v4.4h-18.5zM599.7 299.9c7.6 0 13.7-3.6 13.7-12.4v-3.9a18.2 18.2 0 0 1 .2-2.8h-.2c-2.3 4.4-6.4 7.2-12.5 7.2-10.5 0-17.5-8.3-17.5-20.1s6.5-19.8 17-19.8c5.5 0 11.1 2.1 13.2 6.9h.2a7 7 0 0 1-.2-1.7c0-2.9 1.2-4.3 4.5-4.3h7v4.4h-4.8a1.5 1.5 0 0 0-1.7 1.6v32.3c0 12.5-9.2 17.3-18.9 17.3a28.7 28.7 0 0 1-12.8-3.1l2-4.3a24.1 24.1 0 0 0 10.8 2.7zm13.8-32.1c0-11.5-5.5-15.1-12.4-15.1s-12.1 5.6-12.1 15 5.1 15.4 12.8 15.4 11.7-3.7 11.7-15.3zM651.2 283.6h7.2v-45.7h-7.2v-4.5h25c3.4 0 6.8.3 9.4 1.6 5.4 2.4 8.8 7.9 8.8 14.9s-3.9 13.4-10 15.6a24.9 24.9 0 0 1-8.1 1.1h-12.5v17.2h7.2v4.5h-19.8zm24.5-21.8a17.1 17.1 0 0 0 6.6-1.1c4.1-1.6 6.5-5.5 6.5-10.9s-2.1-8.6-5.7-10.5a18.8 18.8 0 0 0-7.4-1.3h-11.9v23.8zM703.1 237.7h-6.9v-4.4h12.2v44.6c0 3.2.9 5.9 4.4 5.9a12.4 12.4 0 0 0 2.2-.2v4.5a22.2 22.2 0 0 1-3 .2c-5.1 0-8.9-2.6-8.9-10.1zM742.6 264.1h2.6v-1.6c0-7.3-4-9.9-9.4-9.9a19.8 19.8 0 0 0-11.4 3.8l-2.5-4a23.4 23.4 0 0 1 14.2-4.4c9.5 0 14.4 5.1 14.4 14.7v19.3a1.5 1.5 0 0 0 1.7 1.7h4.3v4.4h-6.4c-3.4 0-4.7-1.5-4.7-4.3v-.7a17.1 17.1 0 0 1 .2-3h-.2s-3.4 9-13.4 9c-6.4 0-13.1-3.7-13.1-11.7.1-12.7 17.1-13.3 23.7-13.3zm-9.7 20.6c7.9 0 12.3-7.9 12.3-14.7v-1.9h-2.3c-3.2 0-18.5-.3-18.5 8.7 0 4.1 3 7.9 8.5 7.9zM763.1 253.3h-7v-4.4h7.1v-10.8h5.2v10.8h9.9v4.4h-9.9v20.1c0 9.2 5.9 10.5 8.9 10.5l1.8-.2v4.6l-2.3.2c-4.5 0-13.7-1.5-13.7-14.6zM783.9 283.8h6.6v-30.5h-7v-4.4h7v-2c0-12.4 8.7-14 12.8-14a19.2 19.2 0 0 1 3.2.2v4.6a13 13 0 0 0-2.7-.2c-2.7 0-8 .9-8 9.3v2.1h10v4.4h-10v30.5h7.8v4.4h-19.7zM828.2 248c11.5 0 20.7 8.7 20.7 20.4a20.7 20.7 0 1 1-20.7-20.4zm0 36.3c8.4 0 15.3-6.9 15.3-16a15.3 15.3 0 1 0-30.5 0c0 9.2 6.9 16 15.2 16zM853 283.8h6.1v-28.8a1.5 1.5 0 0 0-1.7-1.7h-5.3v-4.4h7.4c3.3 0 4.8 1.3 4.8 4.4v2.7a28.3 28.3 0 0 1-.2 3h.2c1.9-5.9 6.3-10.5 12.4-10.5a12 12 0 0 1 2.2.2v5.3l-2-.2c-8.8 0-12.4 9.9-12.4 17.7v12.2h6.1v4.4h-17.6zM883.6 283.8h6.6v-28.8a1.5 1.5 0 0 0-1.7-1.7h-5.3v-4.4h7.5c3.3 0 4.8 1.4 4.8 4.4v2.3a12.9 12.9 0 0 1-.3 2.8h.2c2-5.3 8.3-10.4 14.6-10.4s10.8 3.4 11.9 10h.2c2.2-5.2 7.9-10 14.5-10 9.4 0 12.9 5.5 12.9 15.2v20.6h6.6v4.4h-12v-23.7c0-6.4-1.3-11.7-8.4-11.7s-13.2 8.4-13.2 16.5v14.4h6.6v4.4h-11.9v-23.6c0-5.9-.8-11.7-8.3-11.7s-13.4 8.5-13.4 16.7v14.3h6.6v4.4h-18.5z"/></svg>